<?xml version="1.0" encoding="UTF-8"?>
<!DOCTYPE svg PUBLIC "-//W3C//DTD SVG 1.1//EN" "http://www.w3.org/Graphics/SVG/1.1/DTD/svg11.dtd">
<svg xmlns="http://www.w3.org/2000/svg" version="1.1" width="1288px" height="1280px" style="shape-rendering:geometricPrecision; text-rendering:geometricPrecision; image-rendering:optimizeQuality; fill-rule:evenodd; clip-rule:evenodd" xmlns:xlink="http://www.w3.org/1999/xlink">
<g><path style="opacity:0.969" fill="#000000" d="M 695.5,267.5 C 713.007,271.235 730.507,274.901 748,278.5C 751.128,302.114 753.795,325.78 756,349.5C 759.112,326.936 760.945,304.269 761.5,281.5C 773.554,282.793 785.554,284.46 797.5,286.5C 792.178,323.085 787.512,359.752 783.5,396.5C 766.38,394.591 749.38,391.924 732.5,388.5C 730.142,364.78 727.309,341.113 724,317.5C 720.731,341.22 717.231,364.886 713.5,388.5C 713.167,388.833 712.833,389.167 712.5,389.5C 701.245,387.069 689.912,385.069 678.5,383.5C 683.422,344.71 689.089,306.044 695.5,267.5 Z"/></g>
<g><path style="opacity:0.97" fill="#000000" d="M 608.5,274.5 C 621.167,274.5 633.833,274.5 646.5,274.5C 655.822,309.954 666.156,345.121 677.5,380C 677.18,381.653 676.18,382.653 674.5,383C 663.54,384.321 652.54,385.155 641.5,385.5C 640.994,379.464 640.161,373.464 639,367.5C 631.156,366.32 623.322,366.653 615.5,368.5C 614.684,372.98 614.017,377.48 613.5,382C 613.245,383.326 612.578,384.326 611.5,385C 599.695,386.547 588.029,387.38 576.5,387.5C 583.255,351.306 589.255,314.972 594.5,278.5C 594.818,277.353 595.484,276.519 596.5,276C 600.688,275.824 604.688,275.324 608.5,274.5 Z M 623.5,308.5 C 626.736,320.266 630.069,332.1 633.5,344C 628.599,345.325 623.599,345.825 618.5,345.5C 619.841,333.122 621.507,320.789 623.5,308.5 Z"/></g>
<g><path style="opacity:0.965" fill="#000000" d="M 493.5,287.5 C 494.5,287.5 495.5,287.5 496.5,287.5C 500.113,297.28 503.113,307.28 505.5,317.5C 497.171,321.164 488.505,323.831 479.5,325.5C 486.447,351.176 494.113,376.676 502.5,402C 491.585,407.281 480.252,411.781 468.5,415.5C 467.353,415.182 466.519,414.516 466,413.5C 457.966,388.013 449.632,362.68 441,337.5C 433.886,339.927 426.72,342.26 419.5,344.5C 415.241,334.392 411.575,324.059 408.5,313.5C 437.169,305.608 465.503,296.941 493.5,287.5 Z"/></g>
<g><path style="opacity:0.96" fill="#000000" d="M 815.5,290.5 C 826.095,294.031 836.761,297.365 847.5,300.5C 846.524,316.16 846.024,331.827 846,347.5C 853.294,334.413 860.46,321.247 867.5,308C 879.733,309.28 891.733,311.78 903.5,315.5C 888.911,336.257 873.744,356.59 858,376.5C 854.266,389.202 850.432,401.869 846.5,414.5C 845.667,414.833 844.833,415.167 844,415.5C 832.534,412.591 821.034,409.925 809.5,407.5C 813.395,393.312 817.395,379.146 821.5,365C 817.946,340.294 815.946,315.46 815.5,290.5 Z"/></g>
<g><path style="opacity:0.967" fill="#000000" d="M 366.5,333.5 C 383.791,329.563 395.958,335.563 403,351.5C 408.047,362.633 407.547,373.467 401.5,384C 409.544,383.939 416.377,386.773 422,392.5C 429.383,401.93 435.216,412.263 439.5,423.5C 438.99,425.088 437.99,426.255 436.5,427C 426.833,431.833 417.167,436.667 407.5,441.5C 403.348,434.536 399.181,427.536 395,420.5C 391.602,415.42 386.936,412.42 381,411.5C 377.702,411.223 375.535,412.556 374.5,415.5C 380.184,427.035 386.518,438.202 393.5,449C 382.156,456.007 370.489,462.507 358.5,468.5C 339.523,434.715 321.19,400.549 303.5,366C 323.415,353.043 344.415,342.209 366.5,333.5 Z M 365.5,366.5 C 373.016,369.192 376.182,374.525 375,382.5C 371.772,387.701 367.272,391.368 361.5,393.5C 357.267,387.535 353.934,381.035 351.5,374C 351.645,373.228 351.978,372.561 352.5,372C 356.741,369.651 361.075,367.818 365.5,366.5 Z"/></g>
<g><path style="opacity:0.963" fill="#000000" d="M 973.5,354.5 C 985.387,360.112 997.053,366.278 1008.5,373C 990.035,403.424 972.202,434.258 955,465.5C 953.981,466.687 952.814,467.687 951.5,468.5C 939.833,461 928.167,453.5 916.5,446C 937.149,416.536 956.149,386.036 973.5,354.5 Z"/></g>
<g><path style="opacity:0.965" fill="#000000" d="M 1030.5,395.5 C 1047.63,394.237 1061.96,399.904 1073.5,412.5C 1085.69,423.884 1090.86,437.884 1089,454.5C 1087.02,462.304 1082.86,468.638 1076.5,473.5C 1067.24,466.287 1058.08,458.953 1049,451.5C 1050.7,447.739 1052.2,443.739 1053.5,439.5C 1051.3,432.065 1046.63,429.231 1039.5,431C 1036.51,433.141 1035.34,435.975 1036,439.5C 1042.58,449.666 1048.92,460 1055,470.5C 1061.86,492.619 1054.69,508.452 1033.5,518C 1009.21,521.603 990.372,513.103 977,492.5C 966.502,472.362 969.168,454.362 985,438.5C 993.922,445.417 1002.26,453.084 1010,461.5C 1008.51,466.673 1007.84,472.006 1008,477.5C 1013.41,485.224 1018.74,485.224 1024,477.5C 1024.67,474.5 1024.67,471.5 1024,468.5C 1020.05,462.877 1015.71,457.543 1011,452.5C 992.14,424.575 998.64,405.575 1030.5,395.5 Z"/></g>
<g><path style="opacity:0.973" fill="#000000" d="M 266.5,397.5 C 299.959,401.778 321.792,420.112 332,452.5C 338.156,487.029 324.656,509.862 291.5,521C 277.174,523.781 264.174,520.781 252.5,512C 233.449,497.56 222.116,478.56 218.5,455C 220.34,430.659 232.006,412.659 253.5,401C 257.919,399.648 262.252,398.481 266.5,397.5 Z M 266.5,436.5 C 283.69,440.857 294.356,451.69 298.5,469C 297.728,476.438 293.562,480.605 286,481.5C 271.716,476.549 262.049,466.883 257,452.5C 256.352,444.782 259.519,439.449 266.5,436.5 Z"/></g>
<g><path style="opacity:0.965" fill="#000000" d="M 1112.5,482.5 C 1130.48,481.242 1144.65,487.909 1155,502.5C 1165.68,516.547 1169.35,532.214 1166,549.5C 1162.04,558.455 1155.71,565.122 1147,569.5C 1139.36,560.221 1132.19,550.554 1125.5,540.5C 1127.86,537.978 1130.02,535.312 1132,532.5C 1133.97,523.488 1130.47,518.988 1121.5,519C 1118,520.323 1116.34,522.823 1116.5,526.5C 1118.75,535.666 1121.58,544.666 1125,553.5C 1131.05,577.232 1122.55,593.065 1099.5,601C 1071.07,600.848 1052.9,587.015 1045,559.5C 1041.52,538.46 1048.86,522.46 1067,511.5C 1074,521.496 1080.5,531.83 1086.5,542.5C 1083.75,545.081 1081.59,548.081 1080,551.5C 1079.68,561.874 1084.18,565.041 1093.5,561C 1095.87,559.079 1097.2,556.579 1097.5,553.5C 1094.84,544.509 1091.34,535.842 1087,527.5C 1079.26,503.112 1087.76,488.112 1112.5,482.5 Z"/></g>
<g><path style="opacity:0.966" fill="#000000" d="M 223.5,614.5 C 216.276,607.543 208.609,601.043 200.5,595C 177,578.833 153.5,562.667 130,546.5C 129.333,545.5 129.333,544.5 130,543.5C 139.574,526.852 150.741,511.352 163.5,497C 180.212,485.262 196.545,485.929 212.5,499C 226.1,510.474 229.934,524.641 224,541.5C 221.754,546.326 219.254,550.992 216.5,555.5C 227.167,562.833 237.833,570.167 248.5,577.5C 241.134,589.704 233.967,602.037 227,614.5C 226.014,615.171 224.847,615.171 223.5,614.5 Z M 185.5,516.5 C 191.662,516.666 196.495,519.333 200,524.5C 200.676,531.813 198.509,538.147 193.5,543.5C 187.701,540.198 182.034,536.698 176.5,533C 175.707,531.915 175.04,530.748 174.5,529.5C 177.123,524.216 180.789,519.883 185.5,516.5 Z"/></g>
<g><path style="opacity:0.966" fill="#000000" d="M 223.5,614.5 C 216.344,639.456 209.344,664.456 202.5,689.5C 166.198,677.621 129.864,665.954 93.5,654.5C 98.3952,631.191 103.229,607.858 108,584.5C 108.519,583.484 109.353,582.818 110.5,582.5C 118.904,585.301 127.237,588.301 135.5,591.5C 135.833,592 136.167,592.5 136.5,593C 134.117,602.584 132.117,612.251 130.5,622C 130.755,623.326 131.422,624.326 132.5,625C 137.108,626.485 141.774,627.652 146.5,628.5C 148.5,618.835 150.5,609.168 152.5,599.5C 159.125,601.114 165.625,603.114 172,605.5C 170.821,615.064 168.988,624.564 166.5,634C 166.645,634.772 166.978,635.439 167.5,636C 172.763,637.815 178.097,639.315 183.5,640.5C 186.481,629.243 189.148,617.909 191.5,606.5C 202.317,608.55 212.984,611.217 223.5,614.5 Z"/></g>
<g><path style="opacity:0.972" fill="#000000" d="M 1191.5,582.5 C 1193.17,582.5 1194.83,582.5 1196.5,582.5C 1198.93,594.041 1201.59,605.541 1204.5,617C 1204.17,617.5 1203.83,618 1203.5,618.5C 1183.07,624.365 1162.74,630.532 1142.5,637C 1136.45,638.685 1133.62,642.518 1134,648.5C 1135.26,651.428 1137.43,653.261 1140.5,654C 1143.83,654.114 1147.17,653.781 1150.5,653C 1169.54,647.932 1188.2,641.765 1206.5,634.5C 1212.04,645.302 1215.88,656.635 1218,668.5C 1189.05,683.932 1158.22,691.098 1125.5,690C 1106.6,686.095 1095.43,674.595 1092,655.5C 1088.71,639.017 1093.55,625.517 1106.5,615C 1119.44,606.199 1133.44,599.533 1148.5,595C 1162.75,590.078 1177.08,585.912 1191.5,582.5 Z"/></g>
<g><path style="opacity:0.972" fill="#000000" d="M 115.5,693.5 C 131.464,690.64 143.631,695.973 152,709.5C 154.116,703.005 158.616,699.172 165.5,698C 179.034,694.823 192.701,693.656 206.5,694.5C 207.479,706.116 207.812,717.782 207.5,729.5C 195.608,729.452 183.942,730.952 172.5,734C 168.332,737.461 166.332,741.961 166.5,747.5C 176.02,747.165 185.52,746.499 195,745.5C 196.894,745.58 198.727,745.913 200.5,746.5C 202.068,759.122 203.068,771.788 203.5,784.5C 166.875,788.117 130.209,790.117 93.5,790.5C 92.9197,774.666 92.253,758.833 91.5,743C 91.605,733.012 92.7716,723.179 95,713.5C 98.4702,703.194 105.304,696.528 115.5,693.5 Z M 125.5,731.5 C 134.42,731.247 139.586,735.58 141,744.5C 141.814,746.902 141.647,749.235 140.5,751.5C 134.218,752.626 127.885,752.793 121.5,752C 119.054,746.694 118.887,741.194 121,735.5C 122.397,733.93 123.897,732.596 125.5,731.5 Z"/></g>
<g><path style="opacity:0.969" fill="#000000" d="M 1109.5,706.5 C 1147.15,708.805 1184.82,710.805 1222.5,712.5C 1224.53,737.12 1226.2,761.787 1227.5,786.5C 1217.52,785.612 1207.52,784.946 1197.5,784.5C 1197.67,778.491 1197.5,772.491 1197,766.5C 1196.91,761.344 1196.08,756.344 1194.5,751.5C 1189.56,750.552 1184.56,750.219 1179.5,750.5C 1179.27,760.865 1179.6,771.198 1180.5,781.5C 1173.53,780.71 1166.53,780.377 1159.5,780.5C 1158.93,770.154 1158.27,759.82 1157.5,749.5C 1151.85,748.968 1146.18,748.635 1140.5,748.5C 1140.5,760.5 1140.5,772.5 1140.5,784.5C 1129.83,784.5 1119.17,784.5 1108.5,784.5C 1108.24,758.485 1108.58,732.485 1109.5,706.5 Z"/></g>
<g><path style="opacity:0.841" fill="#000000" d="M 202.5,813.5 C 204.582,813.624 206.082,814.624 207,816.5C 208.045,873.168 208.712,929.835 209,986.5C 208.196,987.804 207.029,988.471 205.5,988.5C 155.795,961.23 106.295,933.563 57,905.5C 56.2571,903.559 56.4238,901.726 57.5,900C 105.897,871.141 154.23,842.307 202.5,813.5 Z M 198.5,824.5 C 199.832,836.481 200.499,848.815 200.5,861.5C 201.049,900.533 201.549,939.533 202,978.5C 157.248,953.207 112.414,928.04 67.5,903C 111.23,876.807 154.897,850.641 198.5,824.5 Z"/></g>
<g><path style="opacity:0.879" fill="#000000" d="M 181.5,885.5 C 185.167,885.5 188.833,885.5 192.5,885.5C 192.5,890.833 192.5,896.167 192.5,901.5C 187.167,901.5 181.833,901.5 176.5,901.5C 176.5,896.5 176.5,891.5 176.5,886.5C 178.415,886.784 180.081,886.451 181.5,885.5 Z"/></g>
<g><path style="opacity:0.932" fill="#000000" d="M 113.5,886.5 C 133.243,886.147 152.909,887.147 172.5,889.5C 172.5,892.5 172.5,895.5 172.5,898.5C 152.917,901.12 133.25,902.787 113.5,903.5C 113.5,897.833 113.5,892.167 113.5,886.5 Z"/></g>
</svg>
