<?xml version="1.0" encoding="UTF-8"?>
<!DOCTYPE svg PUBLIC "-//W3C//DTD SVG 1.1//EN" "http://www.w3.org/Graphics/SVG/1.1/DTD/svg11.dtd">
<svg xmlns="http://www.w3.org/2000/svg" version="1.1" width="593px" height="352px" style="shape-rendering:geometricPrecision; text-rendering:geometricPrecision; image-rendering:optimizeQuality; fill-rule:evenodd; clip-rule:evenodd" xmlns:xlink="http://www.w3.org/1999/xlink">
<g><path style="opacity:0.943" fill="#000000" d="M 320.5,-0.5 C 322.5,-0.5 324.5,-0.5 326.5,-0.5C 333.581,1.55473 340.748,3.55473 348,5.5C 349.188,16.1967 350.522,26.8634 352,37.5C 353.118,27.1853 353.951,16.852 354.5,6.5C 360.526,6.94883 366.526,7.61549 372.5,8.5C 370.354,27.1908 368.02,45.8574 365.5,64.5C 356.791,64.2982 348.291,62.9648 340,60.5C 338.652,49.6897 336.985,39.023 335,28.5C 333.359,39.49 331.859,50.49 330.5,61.5C 324.5,60.5 318.5,59.5 312.5,58.5C 314.607,38.7534 317.273,19.0867 320.5,-0.5 Z"/></g>
<g><path style="opacity:0.94" fill="#000000" d="M 273.5,2.5 C 281.087,2.18583 288.587,2.51916 296,3.5C 300.762,21.1187 305.928,38.6187 311.5,56C 311.355,56.772 311.022,57.4387 310.5,58C 304.838,59.3683 299.171,59.535 293.5,58.5C 292.833,55.8333 292.167,53.1667 291.5,50.5C 287.554,49.8155 283.554,49.8155 279.5,50.5C 279.5,53.5 279.5,56.5 279.5,59.5C 273.178,60.014 266.845,60.3473 260.5,60.5C 263.439,41.8629 266.273,23.1963 269,4.5C 270.622,3.90109 272.122,3.23442 273.5,2.5 Z M 283.5,21.5 C 285.92,26.829 287.587,32.4956 288.5,38.5C 286.167,38.5 283.833,38.5 281.5,38.5C 282.493,32.8747 283.16,27.208 283.5,21.5 Z"/></g>
<g><path style="opacity:0.934" fill="#000000" d="M 216.5,9.5 C 217.822,9.33003 218.989,9.66337 220,10.5C 221.603,15.1412 223.103,19.8079 224.5,24.5C 220.768,26.6041 216.768,28.1041 212.5,29C 211.941,29.7247 211.608,30.5581 211.5,31.5C 214.845,42.5471 218.345,53.5471 222,64.5C 222.72,66.1124 222.554,67.6124 221.5,69C 215.904,70.9754 210.404,73.142 205,75.5C 200.268,62.6366 195.934,49.6366 192,36.5C 191.586,36.0426 191.086,35.7093 190.5,35.5C 186.952,36.9702 183.285,37.9702 179.5,38.5C 178.134,33.427 176.468,28.427 174.5,23.5C 188.592,18.8176 202.592,14.1509 216.5,9.5 Z"/></g>
<g><path style="opacity:0.922" fill="#000000" d="M 381.5,10.5 C 387.026,12.398 392.526,14.398 398,16.5C 397.647,23.8149 397.647,31.1482 398,38.5C 401.36,31.7624 405.193,25.4291 409.5,19.5C 414.847,20.6028 420.181,21.7695 425.5,23C 425.957,23.414 426.291,23.914 426.5,24.5C 419.577,34.9243 412.077,44.9243 404,54.5C 401.667,61.5 399.333,68.5 397,75.5C 390.66,73.9356 384.493,71.9356 378.5,69.5C 380.906,62.6164 382.906,55.6164 384.5,48.5C 382.786,35.8883 381.786,23.2216 381.5,10.5 Z"/></g>
<g><path style="opacity:0.938" fill="#000000" d="M 153.5,32.5 C 163.61,30.7988 170.11,34.7988 173,44.5C 173.914,49.1964 173.414,53.6964 171.5,58C 176.909,58.4048 181.075,60.9048 184,65.5C 186.696,69.5596 188.863,73.893 190.5,78.5C 190.167,79.1667 189.833,79.8333 189.5,80.5C 184.255,83.039 179.088,85.7057 174,88.5C 171.667,84.5 169.333,80.5 167,76.5C 164.859,73.5088 162.025,72.3421 158.5,73C 157.483,74.0495 157.316,75.2161 158,76.5C 161.167,81.6667 164.333,86.8333 167.5,92C 161.658,95.4215 155.658,98.5881 149.5,101.5C 139.342,84.5245 129.675,67.1911 120.5,49.5C 131.195,42.9871 142.195,37.3205 153.5,32.5 Z M 149.5,50.5 C 155.85,49.5249 158.35,52.1916 157,58.5C 155.499,60.5836 153.499,61.9169 151,62.5C 148.676,59.8629 146.843,56.8629 145.5,53.5C 146.901,52.4793 148.235,51.4793 149.5,50.5 Z"/></g>
<g><path style="opacity:0.929" fill="#000000" d="M 462.5,43.5 C 468.849,46.0405 474.516,49.5405 479.5,54C 470.328,70.1399 460.828,85.9733 451,101.5C 444.726,98.2835 438.892,94.4501 433.5,90C 443.547,74.7405 453.213,59.2405 462.5,43.5 Z"/></g>
<g><path style="opacity:0.931" fill="#000000" d="M 488.5,64.5 C 501.243,63.1222 511.076,67.7888 518,78.5C 521.703,84.865 522.37,91.5316 520,98.5C 518.691,100.976 516.858,102.976 514.5,104.5C 509.855,101.023 505.355,97.3559 501,93.5C 501.138,91.5104 501.638,89.5104 502.5,87.5C 501.558,83.1131 499.058,81.7797 495,83.5C 494.626,84.4162 494.126,85.2496 493.5,86C 498.502,92.1694 502.335,99.0027 505,106.5C 504.845,122.642 496.679,129.475 480.5,127C 464.922,121.441 458.755,110.608 462,94.5C 463.308,91.2078 465.308,88.5411 468,86.5C 472.322,90.1533 476.655,93.8199 481,97.5C 480.377,100.437 480.043,103.437 480,106.5C 481.154,107.743 482.488,108.743 484,109.5C 487.12,108.076 488.453,105.742 488,102.5C 485.333,99.1667 482.667,95.8333 480,92.5C 472.153,79.8716 474.987,70.5383 488.5,64.5 Z"/></g>
<g><path style="opacity:0.947" fill="#000000" d="M 99.5,65.5 C 116.386,65.8703 128.22,73.8703 135,89.5C 140.684,107.628 134.851,120.462 117.5,128C 106.755,130.419 97.588,127.586 90,119.5C 76.7906,106.092 75.1239,91.4252 85,75.5C 89.2083,71.1025 94.0416,67.7692 99.5,65.5 Z M 101.5,85.5 C 110.388,87.3873 116.055,92.7206 118.5,101.5C 116.796,108.023 113.129,109.523 107.5,106C 102.783,102.46 99.4496,97.9601 97.5,92.5C 98.0707,89.6873 99.4041,87.354 101.5,85.5 Z"/></g>
<g><path style="opacity:0.932" fill="#000000" d="M 531.5,108.5 C 546.464,107.951 555.964,114.951 560,129.5C 563.198,140.054 560.031,148.054 550.5,153.5C 546.589,148.678 542.922,143.678 539.5,138.5C 542.072,136.364 543.239,133.697 543,130.5C 539.808,126.349 536.974,126.515 534.5,131C 536.727,136.347 538.56,141.847 540,147.5C 541.83,156.672 538.664,163.505 530.5,168C 511.84,170.54 500.84,162.374 497.5,143.5C 497.936,135.124 501.602,128.624 508.5,124C 509.167,123.333 509.833,123.333 510.5,124C 513.516,129.01 516.516,134.01 519.5,139C 517.339,141.477 516.505,144.311 517,147.5C 520.81,150.503 523.644,149.67 525.5,145C 523.198,139.561 521.031,134.061 519,128.5C 517.25,118.092 521.416,111.425 531.5,108.5 Z"/></g>
<g><path style="opacity:0.934" fill="#000000" d="M 57.5,111.5 C 77.5399,112.35 85.0399,122.35 80,141.5C 78.9164,142.665 78.0831,143.998 77.5,145.5C 82.8333,149.5 88.1667,153.5 93.5,157.5C 89.4851,164.876 84.9851,171.876 80,178.5C 76.9201,190.735 73.2534,202.735 69,214.5C 51.1709,207.723 33.0043,202.057 14.5,197.5C 16.8321,184.837 19.1654,172.171 21.5,159.5C 26.4831,160.827 31.4831,162.16 36.5,163.5C 35.2031,169.14 34.3698,174.807 34,180.5C 36.3015,181.867 38.8015,182.534 41.5,182.5C 42.1952,177.386 43.3618,172.386 45,167.5C 48.0047,169.002 51.1714,170.002 54.5,170.5C 54.0725,175.803 53.0725,180.97 51.5,186C 54.3117,187.549 57.3117,188.382 60.5,188.5C 61.601,182.93 62.9343,177.43 64.5,172C 69.6109,172.596 74.6109,173.596 79.5,175C 63.9502,163.275 48.2835,151.775 32.5,140.5C 37.4373,130.391 44.104,121.558 52.5,114C 54.3146,113.243 55.9812,112.41 57.5,111.5 Z M 60.5,126.5 C 69.3835,128.009 70.8835,132.342 65,139.5C 61.7466,137.457 58.5799,135.29 55.5,133C 56.9993,130.672 58.666,128.505 60.5,126.5 Z"/></g>
<g><path style="opacity:0.943" fill="#000000" d="M 571.5,159.5 C 573.144,159.286 574.644,159.62 576,160.5C 577.807,166.392 578.974,172.392 579.5,178.5C 567.977,181.381 556.644,184.881 545.5,189C 542.833,191 542.833,193 545.5,195C 556.611,194.413 567.278,191.747 577.5,187C 578.833,186.333 580.167,186.333 581.5,187C 583.789,192.032 585.789,197.199 587.5,202.5C 586.221,204.146 584.555,205.313 582.5,206C 570.591,210.916 558.257,214.083 545.5,215.5C 525.775,212.722 518.608,201.722 524,182.5C 528.716,176.132 534.883,171.632 542.5,169C 552.227,165.66 561.893,162.493 571.5,159.5 Z"/></g>
<g><path style="opacity:0.949" fill="#000000" d="M 26.5,215.5 C 33.9601,214.816 39.7934,217.483 44,223.5C 45.4798,220.337 47.9798,218.504 51.5,218C 58.4369,216.712 65.4369,216.212 72.5,216.5C 72.5,222.5 72.5,228.5 72.5,234.5C 66.4022,234.679 60.4022,235.512 54.5,237C 52.5494,238.734 51.5494,240.901 51.5,243.5C 57.491,243.034 63.491,242.701 69.5,242.5C 69.7129,249.174 70.0462,255.841 70.5,262.5C 51.898,264.543 33.2313,265.543 14.5,265.5C 13.4417,253.522 13.2751,241.522 14,229.5C 15.2826,222.06 19.4492,217.393 26.5,215.5 Z M 30.5,235.5 C 36.4533,236.126 39.12,239.46 38.5,245.5C 27.6855,248.309 25.0188,244.976 30.5,235.5 Z"/></g>
<g><path style="opacity:0.942" fill="#000000" d="M 531.5,222.5 C 550.812,223.845 570.146,224.845 589.5,225.5C 590.206,238.164 590.872,250.831 591.5,263.5C 586.482,263.387 581.482,263.053 576.5,262.5C 575.866,256.855 575.532,251.189 575.5,245.5C 572.833,245.5 570.167,245.5 567.5,245.5C 567.666,250.844 567.499,256.177 567,261.5C 563.606,260.544 560.106,260.211 556.5,260.5C 556.781,255.435 556.448,250.435 555.5,245.5C 552.914,244.52 550.247,244.187 547.5,244.5C 547.5,250.5 547.5,256.5 547.5,262.5C 541.833,262.5 536.167,262.5 530.5,262.5C 530.42,249.153 530.753,235.82 531.5,222.5 Z"/></g>
<g><path style="opacity:0.779" fill="#000000" d="M 69.5,351.5 C 67.8333,351.5 66.1667,351.5 64.5,351.5C 43.0021,339.25 21.3355,327.25 -0.5,315.5C -0.5,314.167 -0.5,312.833 -0.5,311.5C 20.9715,298.929 42.3048,286.096 63.5,273C 64.8333,272.333 66.1667,272.333 67.5,273C 68.7583,299.089 69.425,325.255 69.5,351.5 Z M 62.5,279.5 C 63.3134,297.667 63.9801,316.001 64.5,334.5C 64.1667,337.833 63.8333,341.167 63.5,344.5C 44.7054,334.2 26.0387,323.7 7.5,313C 26.2303,302.31 44.5637,291.143 62.5,279.5 Z"/></g>
<g><path style="opacity:0.863" fill="#000000" d="M 22.5,307.5 C 30.8692,307.862 39.2026,308.528 47.5,309.5C 47.7733,311.451 47.1066,312.951 45.5,314C 37.536,315.098 29.536,315.598 21.5,315.5C 21.2786,312.721 21.612,310.054 22.5,307.5 Z"/></g>
<g><path style="opacity:0.764" fill="#000000" d="M 49.5,307.5 C 51.8333,307.5 54.1667,307.5 56.5,307.5C 56.5,310.167 56.5,312.833 56.5,315.5C 54.1667,315.5 51.8333,315.5 49.5,315.5C 49.5,312.833 49.5,310.167 49.5,307.5 Z"/></g>
</svg>
