<?xml version="1.0" encoding="UTF-8"?>
<!DOCTYPE svg PUBLIC "-//W3C//DTD SVG 1.1//EN" "http://www.w3.org/Graphics/SVG/1.1/DTD/svg11.dtd">
<svg xmlns="http://www.w3.org/2000/svg" version="1.1" width="1285px" height="777px" style="shape-rendering:geometricPrecision; text-rendering:geometricPrecision; image-rendering:optimizeQuality; fill-rule:evenodd; clip-rule:evenodd" xmlns:xlink="http://www.w3.org/1999/xlink">
<g><path style="opacity:0.989" fill="#146ab3" d="M 712.5,0.5 C 715.187,0.33591 717.854,0.502577 720.5,1C 737.063,4.84384 753.563,8.67718 770,12.5C 773.326,38.4293 775.993,64.4293 778,90.5C 781.47,65.612 783.637,40.612 784.5,15.5C 797.241,16.6059 809.908,18.2726 822.5,20.5C 817.313,59.8097 812.313,99.143 807.5,138.5C 789.407,136.846 771.574,133.846 754,129.5C 750.507,104.229 747.174,78.8955 744,53.5C 740.171,79.1326 736.671,104.799 733.5,130.5C 721.464,128.993 709.464,127.16 697.5,125C 696.342,123.991 695.675,122.658 695.5,121C 700.935,80.7904 706.601,40.6237 712.5,0.5 Z"/></g>
<g><path style="opacity:0.989" fill="#146ab3" d="M 623.5,7.5 C 635.833,7.5 648.167,7.5 660.5,7.5C 670.586,45.5934 681.586,83.4267 693.5,121C 693.167,121.833 692.833,122.667 692.5,123.5C 680.291,125.682 667.958,126.682 655.5,126.5C 654.5,119.833 653.5,113.167 652.5,106.5C 644.069,106.214 635.736,106.881 627.5,108.5C 625.934,114.394 625.267,120.394 625.5,126.5C 613.67,127.462 601.836,128.462 590,129.5C 588.5,129.167 587,128.833 585.5,128.5C 593.022,89.0322 599.356,49.3655 604.5,9.5C 610.982,8.95481 617.315,8.28814 623.5,7.5 Z M 635.5,44.5 C 639.379,56.8312 643.045,69.3312 646.5,82C 641.355,83.4457 636.021,83.9457 630.5,83.5C 631.886,70.4623 633.553,57.4623 635.5,44.5 Z"/></g>
<g><path style="opacity:0.988" fill="#146ab3" d="M 496.5,21.5 C 497.496,21.4142 498.329,21.7476 499,22.5C 503.571,32.7904 506.571,43.4571 508,54.5C 499.042,57.8747 489.876,60.5413 480.5,62.5C 488.836,90.5061 497.169,118.506 505.5,146.5C 492.857,150.992 480.191,155.159 467.5,159C 458.13,131.694 449.297,104.194 441,76.5C 433.01,77.6641 425.01,79.6641 417,82.5C 416.5,82.1667 416,81.8333 415.5,81.5C 412.03,71.0909 408.364,60.7576 404.5,50.5C 435.258,40.8162 465.925,31.1495 496.5,21.5 Z"/></g>
<g><path style="opacity:0.987" fill="#146ab3" d="M 842.5,24.5 C 853.699,28.5664 865.033,32.233 876.5,35.5C 875.619,52.4977 875.119,69.4977 875,86.5C 883,71.8333 891,57.1667 899,42.5C 911.797,45.3269 924.631,48.1602 937.5,51C 921.853,73.7913 905.353,95.958 888,117.5C 883.932,131.202 879.766,144.869 875.5,158.5C 862.044,156.807 848.711,153.807 835.5,149.5C 839.965,134.772 844.632,120.105 849.5,105.5C 844.908,78.7264 842.574,51.7264 842.5,24.5 Z"/></g>
<g><path style="opacity:0.992" fill="#146ab3" d="M 363.5,70.5 C 381.997,68.1632 394.163,75.8299 400,93.5C 403.888,104.228 403.055,114.561 397.5,124.5C 406.538,125.103 414.038,128.769 420,135.5C 427.523,145.045 433.357,155.545 437.5,167C 437.561,168.711 436.894,170.044 435.5,171C 424.869,176.899 414.036,182.399 403,187.5C 398.273,175.867 391.439,165.7 382.5,157C 376.938,153.251 371.938,153.751 367.5,158.5C 374.1,171.09 381.1,183.423 388.5,195.5C 376.289,202.438 363.956,209.105 351.5,215.5C 350.833,215.167 350.167,214.833 349.5,214.5C 330.167,178.5 310.833,142.5 291.5,106.5C 292.748,104.541 294.415,103.041 296.5,102C 313.55,92.4747 330.884,83.4747 348.5,75C 353.577,73.32 358.577,71.82 363.5,70.5 Z M 357.5,106.5 C 364.579,108.099 368.579,112.599 369.5,120C 369.203,124.309 367.203,127.643 363.5,130C 360.327,132.087 356.994,133.921 353.5,135.5C 349.362,128.89 346.028,121.89 343.5,114.5C 347.582,110.793 352.249,108.126 357.5,106.5 Z"/></g>
<g><path style="opacity:0.99" fill="#146ab3" d="M 1012.5,93.5 C 1014.31,93.4914 1015.98,93.9914 1017.5,95C 1028,101.419 1038.67,107.586 1049.5,113.5C 1029.91,145.677 1011.08,178.343 993,211.5C 991.959,213.585 990.459,215.252 988.5,216.5C 975.957,208.401 963.624,200.068 951.5,191.5C 973.347,159.813 993.68,127.146 1012.5,93.5 Z"/></g>
<g><path style="opacity:0.988" fill="#146ab3" d="M 1073.5,137.5 C 1088.66,135.943 1101.99,140.11 1113.5,150C 1126.07,159.99 1133.91,172.823 1137,188.5C 1138.01,201.317 1133.84,212.151 1124.5,221C 1123.5,221.667 1122.5,221.667 1121.5,221C 1112.02,212.761 1102.35,204.761 1092.5,197C 1099.8,188.737 1099.13,181.403 1090.5,175C 1083.89,173.645 1079.89,176.311 1078.5,183C 1084.26,193.089 1090.42,202.923 1097,212.5C 1108.03,232.887 1104.53,250.387 1086.5,265C 1069.87,272.774 1053.53,272.107 1037.5,263C 1010.45,245.965 1003.28,222.798 1016,193.5C 1018.61,189.941 1021.44,186.607 1024.5,183.5C 1034.12,191.618 1043.29,200.285 1052,209.5C 1050.62,213.313 1049.45,217.313 1048.5,221.5C 1051.9,232.47 1057.73,234.136 1066,226.5C 1067.9,222.864 1067.9,219.197 1066,215.5C 1060.67,208.833 1055.33,202.167 1050,195.5C 1044.99,187.658 1041.83,179.158 1040.5,170C 1041.76,160.062 1046.42,152.062 1054.5,146C 1060.44,142.024 1066.77,139.191 1073.5,137.5 Z"/></g>
<g><path style="opacity:0.991" fill="#146ab3" d="M 246.5,140.5 C 263.265,139.256 278.265,143.756 291.5,154C 314.615,171.397 325.448,194.564 324,223.5C 319.109,247.728 304.942,263.895 281.5,272C 265.937,275.858 251.604,273.192 238.5,264C 221.648,251.443 209.814,235.277 203,215.5C 197.979,184.708 208.812,161.208 235.5,145C 239.157,143.178 242.824,141.678 246.5,140.5 Z M 249.5,182.5 C 259.823,182.578 268.323,186.578 275,194.5C 280.316,200.961 284.483,208.128 287.5,216C 281.806,231.23 272.473,233.897 259.5,224C 253.922,219.093 249.089,213.593 245,207.5C 239.261,197.686 240.761,189.353 249.5,182.5 Z"/></g>
<g><path style="opacity:0.989" fill="#146ab3" d="M 1159.5,231.5 C 1182.62,229.309 1199.79,238.309 1211,258.5C 1219.11,271.046 1222.11,284.713 1220,299.5C 1216.8,311.249 1209.8,319.915 1199,325.5C 1190.97,314.974 1183.14,304.307 1175.5,293.5C 1176.53,291.639 1178.03,290.305 1180,289.5C 1185.91,280.608 1184.08,273.941 1174.5,269.5C 1169.69,270.548 1166.69,273.381 1165.5,278C 1168.06,288.027 1171.23,297.861 1175,307.5C 1181.75,336.66 1170.42,353.993 1141,359.5C 1115.32,356.16 1098.32,342.16 1090,317.5C 1084.24,293.379 1091.9,275.046 1113,262.5C 1120.03,273.367 1126.86,284.367 1133.5,295.5C 1130.84,298.147 1128.68,301.147 1127,304.5C 1125.43,311.411 1127.93,316.078 1134.5,318.5C 1140.62,317.548 1144.29,314.048 1145.5,308C 1142.37,297.91 1138.54,288.077 1134,278.5C 1126.33,253.831 1134.83,238.165 1159.5,231.5 Z"/></g>
<g><path style="opacity:0.989" fill="#146ab3" d="M 158.5,237.5 C 180.792,237.058 196.959,246.724 207,266.5C 210.243,275.15 210.243,283.817 207,292.5C 204.368,297.814 201.701,303.147 199,308.5C 198.333,309.5 198.333,310.5 199,311.5C 210.62,318.054 221.787,325.221 232.5,333C 224.587,346.154 216.921,359.487 209.5,373C 208.5,373.667 207.5,373.667 206.5,373C 199.833,367.333 193.167,361.667 186.5,356C 158.954,337.067 131.621,317.9 104.5,298.5C 113.677,282.808 123.843,267.808 135,253.5C 141.44,245.856 149.273,240.523 158.5,237.5 Z M 165.5,267.5 C 178.576,269.354 183.076,276.354 179,288.5C 177.719,291.603 175.886,294.269 173.5,296.5C 166.32,293.147 159.82,288.814 154,283.5C 155.103,276.325 158.936,270.991 165.5,267.5 Z"/></g>
<g><path style="opacity:0.99" fill="#146ab3" d="M 82.5,338.5 C 92.8052,341.379 102.805,345.046 112.5,349.5C 108.988,360.877 106.988,372.377 106.5,384C 111.394,385.298 116.227,386.798 121,388.5C 121.5,388.167 122,387.833 122.5,387.5C 125.012,377.118 127.679,366.785 130.5,356.5C 136.796,358.765 143.129,360.932 149.5,363C 150.081,363.893 150.415,364.893 150.5,366C 148.258,376.132 146.258,386.299 144.5,396.5C 150.331,397.554 155.998,399.221 161.5,401.5C 165.602,389.428 168.936,377.095 171.5,364.5C 183.275,366.426 194.608,369.759 205.5,374.5C 198.062,400.757 190.395,426.924 182.5,453C 144.102,440.563 105.436,428.73 66.5,417.5C 71.0701,390.983 76.4034,364.649 82.5,338.5 Z"/></g>
<g><path style="opacity:0.99" fill="#146ab3" d="M 1247.5,338.5 C 1248.83,338.5 1250.17,338.5 1251.5,338.5C 1254.97,351.389 1257.97,364.389 1260.5,377.5C 1240.14,383.174 1219.81,389.007 1199.5,395C 1193.96,396.685 1189.13,399.518 1185,403.5C 1184.13,414.02 1188.97,417.853 1199.5,415C 1221.06,409.868 1242.06,403.035 1262.5,394.5C 1267.65,406.118 1272.32,417.952 1276.5,430C 1249,444.709 1219.67,453.209 1188.5,455.5C 1153.66,453.818 1137.16,435.485 1139,400.5C 1140.84,390.317 1145.68,381.817 1153.5,375C 1165.35,366.26 1178.35,359.594 1192.5,355C 1210.73,348.699 1229.06,343.199 1247.5,338.5 Z"/></g>
<g><path style="opacity:0.988" fill="#146ab3" d="M 93.5,457.5 C 109.206,455.767 120.706,461.767 128,475.5C 130.909,469.268 135.742,465.102 142.5,463C 157.334,459.458 172.334,458.292 187.5,459.5C 188.48,471.783 188.813,484.116 188.5,496.5C 181.191,497.184 173.858,497.684 166.5,498C 159.309,498.252 152.809,500.419 147,504.5C 145.53,508.378 144.697,512.378 144.5,516.5C 156.804,515.336 169.137,514.669 181.5,514.5C 182.547,528.162 183.547,541.829 184.5,555.5C 145.288,559.692 105.955,562.025 66.5,562.5C 64.2314,536.507 64.0647,510.507 66,484.5C 69.8304,469.834 78.997,460.834 93.5,457.5 Z M 98.5,499.5 C 113.004,499.013 119.004,506.013 116.5,520.5C 109.303,521.82 102.137,521.82 95,520.5C 92.3659,512.806 93.5326,505.806 98.5,499.5 Z"/></g>
<g><path style="opacity:0.986" fill="#146ab3" d="M 1284.5,538.5 C 1284.5,544.833 1284.5,551.167 1284.5,557.5C 1274.14,557.22 1263.81,556.553 1253.5,555.5C 1252.96,543.815 1252.13,532.149 1251,520.5C 1245.26,519.525 1239.43,519.192 1233.5,519.5C 1233.42,530.516 1233.75,541.516 1234.5,552.5C 1226.86,551.737 1219.19,551.403 1211.5,551.5C 1211.5,540.487 1211.17,529.487 1210.5,518.5C 1204.21,517.628 1197.88,517.295 1191.5,517.5C 1191.83,530.184 1191.5,542.851 1190.5,555.5C 1179.21,556.319 1167.87,556.319 1156.5,555.5C 1157.01,527.484 1157.84,499.484 1159,471.5C 1199.37,474.93 1239.87,476.93 1280.5,477.5C 1281.53,498.005 1282.86,518.339 1284.5,538.5 Z"/></g>
<g><path style="opacity:0.965" fill="#1469b2" d="M 177.5,776.5 C 176.167,776.5 174.833,776.5 173.5,776.5C 115.123,739.318 57.1225,701.651 -0.5,663.5C -0.5,662.5 -0.5,661.5 -0.5,660.5C 0.267389,659.828 0.934056,658.995 1.5,658C 61.6768,626.745 122.01,595.745 182.5,565C 188.577,564.086 190.91,566.752 189.5,573C 186.175,637.825 183.008,702.658 180,767.5C 179.943,770.811 179.11,773.811 177.5,776.5 Z M 177.5,577.5 C 178.809,579.571 179.475,582.071 179.5,585C 176.603,643.163 173.77,701.33 171,759.5C 170.751,760.624 170.251,761.624 169.5,762.5C 117.699,729.197 66.032,695.697 14.5,662C 69.2087,634.314 123.542,606.147 177.5,577.5 Z"/></g>
<g><path style="opacity:0.977" fill="#146ab3" d="M 62.5,644.5 C 70.868,644.937 79.2014,645.77 87.5,647C 102.12,650.156 116.786,652.989 131.5,655.5C 131.789,659.106 131.456,662.606 130.5,666C 107.121,666.968 83.7881,666.468 60.5,664.5C 60.6561,657.763 61.3228,651.097 62.5,644.5 Z"/></g>
<g><path style="opacity:0.967" fill="#146ab3" d="M 137.5,652.5 C 143.805,653.364 150.138,654.031 156.5,654.5C 155.899,660.842 155.232,667.176 154.5,673.5C 148.185,672.687 141.852,672.021 135.5,671.5C 136.459,665.205 137.125,658.872 137.5,652.5 Z"/></g>
</svg>
