<?xml version="1.0" encoding="UTF-8"?>
<!DOCTYPE svg PUBLIC "-//W3C//DTD SVG 1.1//EN" "http://www.w3.org/Graphics/SVG/1.1/DTD/svg11.dtd">
<svg xmlns="http://www.w3.org/2000/svg" version="1.1" width="566px" height="263px" style="shape-rendering:geometricPrecision; text-rendering:geometricPrecision; image-rendering:optimizeQuality; fill-rule:evenodd; clip-rule:evenodd" xmlns:xlink="http://www.w3.org/1999/xlink">
<g><path style="opacity:0.98" fill="#146ab3" d="M 289.5,-0.5 C 293.167,-0.5 296.833,-0.5 300.5,-0.5C 308.327,14.8186 315.327,30.4853 321.5,46.5C 317.818,46.6653 314.152,46.4986 310.5,46C 309.311,43.1217 307.978,40.2883 306.5,37.5C 300.528,36.3364 294.528,36.1697 288.5,37C 286.47,40.5891 285.137,44.4224 284.5,48.5C 280.833,48.5 277.167,48.5 273.5,48.5C 278.435,32.0272 283.769,15.6939 289.5,-0.5 Z M 294.5,13.5 C 295.376,13.3691 296.043,13.7025 296.5,14.5C 298.464,18.7543 300.131,23.0876 301.5,27.5C 297.652,27.6886 293.985,27.6886 290.5,27.5C 292.147,22.9095 293.481,18.2428 294.5,13.5 Z"/></g>
<g><path style="opacity:0.978" fill="#146ab3" d="M 238.5,7.5 C 239.75,7.57735 240.583,8.24402 241,9.5C 241.696,12.4781 242.196,15.4781 242.5,18.5C 244.591,18.6816 246.591,18.3482 248.5,17.5C 249.966,20.0213 250.466,22.688 250,25.5C 248.644,26.3802 247.144,26.7135 245.5,26.5C 246.343,32.5474 247.509,38.5474 249,44.5C 251.172,44.9325 253.339,45.2659 255.5,45.5C 258.873,49.9158 257.873,52.7491 252.5,54C 248.091,55.2618 244.257,54.4285 241,51.5C 238.54,44.3263 236.707,36.993 235.5,29.5C 234.07,29.4208 232.736,29.7542 231.5,30.5C 230.645,28.3923 229.978,26.2256 229.5,24C 230.232,22.2345 231.565,21.0678 233.5,20.5C 232.907,18.6183 232.24,16.7849 231.5,15C 234.039,12.6303 236.372,10.1303 238.5,7.5 Z"/></g>
<g><path style="opacity:0.979" fill="#146ab3" d="M 329.5,11.5 C 332.187,11.3359 334.854,11.5026 337.5,12C 338.191,13.0674 338.691,14.2341 339,15.5C 345.333,11.5 351.667,11.5 358,15.5C 359.923,18.544 360.756,21.8773 360.5,25.5C 359.833,33.5068 359.166,41.5068 358.5,49.5C 355.193,48.9492 351.86,48.6159 348.5,48.5C 349.111,41.5023 349.778,34.5023 350.5,27.5C 349.17,18.9177 345.337,17.5844 339,23.5C 337.441,31.4197 336.608,39.4197 336.5,47.5C 333.167,47.1667 329.833,46.8333 326.5,46.5C 327.2,34.7971 328.2,23.1304 329.5,11.5 Z"/></g>
<g><path style="opacity:0.979" fill="#146ab3" d="M 369.5,15.5 C 372.784,15.7233 375.951,16.3899 379,17.5C 380.496,25.4703 381.83,33.4703 383,41.5C 386.707,34.5858 390.54,27.7525 394.5,21C 397.826,20.8281 401.159,20.9947 404.5,21.5C 397.547,34.7284 390.047,47.7284 382,60.5C 380.457,62.3783 378.624,63.8783 376.5,65C 372.129,65.6292 367.796,65.4625 363.5,64.5C 363.335,61.4816 363.502,58.4816 364,55.5C 369.547,58.6491 373.381,57.1491 375.5,51C 373.012,39.2412 371.012,27.4079 369.5,15.5 Z"/></g>
<g><path style="opacity:0.979" fill="#146ab3" d="M 437.5,19.5 C 441.046,20.272 444.379,21.6053 447.5,23.5C 441.889,38.669 435.889,53.669 429.5,68.5C 426.686,66.8954 423.686,65.8954 420.5,65.5C 425.77,50.0244 431.436,34.691 437.5,19.5 Z"/></g>
<g><path style="opacity:0.971" fill="#146ab3" d="M 219.5,23.5 C 222.167,23.5 224.833,23.5 227.5,23.5C 227.5,26.5 227.5,29.5 227.5,32.5C 224.635,32.0548 222.135,32.7215 220,34.5C 219.577,42.8185 221.077,50.8185 224.5,58.5C 224.182,59.6473 223.516,60.4806 222.5,61C 220.238,61.6419 218.071,62.4752 216,63.5C 212.317,52.7833 208.817,41.95 205.5,31C 205.645,30.228 205.978,29.5613 206.5,29C 208.871,28.2652 211.205,27.4318 213.5,26.5C 214.251,27.376 214.751,28.376 215,29.5C 216.332,27.34 217.832,25.34 219.5,23.5 Z"/></g>
<g><path style="opacity:0.976" fill="#146ab3" d="M 181.5,37.5 C 199.92,37.4278 207.087,46.4278 203,64.5C 195.414,75.0423 185.914,77.2089 174.5,71C 163.403,56.7788 165.736,45.6122 181.5,37.5 Z M 184.5,45.5 C 192.368,47.8984 195.535,53.2318 194,61.5C 189.428,66.8119 184.761,66.8119 180,61.5C 175.66,54.3152 177.16,48.9818 184.5,45.5 Z"/></g>
<g><path style="opacity:0.946" fill="#146ab3" d="M 453.5,43.5 C 463.408,42.5382 470.908,46.2049 476,54.5C 476.497,56.8098 476.663,59.1432 476.5,61.5C 473.687,61.4519 471.021,60.7853 468.5,59.5C 467.063,53.7256 463.396,51.0589 457.5,51.5C 457.351,52.552 457.517,53.552 458,54.5C 461.966,57.464 465.633,60.7974 469,64.5C 473.651,74.1984 470.651,79.8651 460,81.5C 446.507,80.6847 440.174,73.6847 441,60.5C 443.443,61.5933 445.943,62.5933 448.5,63.5C 449.424,68.7548 452.424,72.0882 457.5,73.5C 460.082,73.2534 460.915,71.92 460,69.5C 454.953,66.1198 450.953,61.7865 448,56.5C 446.571,50.7001 448.404,46.3668 453.5,43.5 Z"/></g>
<g><path style="opacity:0.978" fill="#146ab3" d="M 142.5,58.5 C 154.475,57.6278 162.308,62.9611 166,74.5C 167.766,85.972 162.933,92.6387 151.5,94.5C 154.376,98.2059 157.043,102.039 159.5,106C 157.358,108.468 154.858,110.635 152,112.5C 142.704,99.4036 133.538,86.237 124.5,73C 126.356,70.8188 128.523,68.9854 131,67.5C 131.689,68.3567 132.522,69.0233 133.5,69.5C 134.867,64.3971 137.867,60.7305 142.5,58.5 Z M 143.5,67.5 C 151,68.3084 155.334,72.4751 156.5,80C 155.938,85.5529 152.938,87.5529 147.5,86C 138.87,80.999 137.537,74.8324 143.5,67.5 Z"/></g>
<g><path style="opacity:0.974" fill="#146ab3" d="M 490.5,63.5 C 497.49,64.2449 503.323,67.2449 508,72.5C 510.943,76.921 511.109,81.2544 508.5,85.5C 506.5,84.5 504.5,83.5 502.5,82.5C 502.064,76.9534 499.231,73.2867 494,71.5C 492.635,72.5929 492.301,73.9262 493,75.5C 497.522,80.525 501.022,86.1917 503.5,92.5C 502.273,98.8971 498.44,102.23 492,102.5C 477.875,100.093 472.208,92.0933 475,78.5C 477.333,79.8333 479.667,81.1667 482,82.5C 481.517,88.8504 484.351,92.8504 490.5,94.5C 492.283,93.6518 492.783,92.3185 492,90.5C 487.251,85.6648 484.085,79.9981 482.5,73.5C 482.809,68.1869 485.476,64.8536 490.5,63.5 Z"/></g>
<g><path style="opacity:0.971" fill="#146ab3" d="M 109.5,87.5 C 117.153,87.1628 123.486,89.8295 128.5,95.5C 124.054,101.449 119.054,106.949 113.5,112C 118.624,115.919 122.624,114.919 125.5,109C 124.833,107.667 124.167,106.333 123.5,105C 126.029,102.971 128.696,101.138 131.5,99.5C 136.047,110.581 132.714,118.415 121.5,123C 110.315,124.506 102.481,120.006 98,109.5C 95.8151,98.8652 99.6484,91.5318 109.5,87.5 Z M 109.5,96.5 C 112.157,96.162 114.49,96.8287 116.5,98.5C 113.805,101.526 111.138,104.526 108.5,107.5C 104.652,103.504 104.985,99.8377 109.5,96.5 Z"/></g>
<g><path style="opacity:0.971" fill="#146ab3" d="M 524.5,89.5 C 525.552,89.3505 526.552,89.5172 527.5,90C 528.975,92.3092 530.642,94.4759 532.5,96.5C 526.186,101.647 520.019,106.98 514,112.5C 512.622,118.788 515.122,121.621 521.5,121C 527.678,116.153 533.844,111.319 540,106.5C 543.016,108.017 545.182,110.35 546.5,113.5C 537.84,121.324 529.006,128.991 520,136.5C 518.167,134.167 516.333,131.833 514.5,129.5C 514.977,128.522 515.643,127.689 516.5,127C 505.558,124.61 501.725,118.11 505,107.5C 511.479,101.367 517.979,95.3672 524.5,89.5 Z"/></g>
<g><path style="opacity:0.98" fill="#146ab3" d="M 70.5,119.5 C 82.9322,118.434 89.0989,124.101 89,136.5C 96.7361,132.918 104.903,130.918 113.5,130.5C 112.594,134.149 111.26,137.649 109.5,141C 102.58,142.918 95.5803,144.585 88.5,146C 84.695,147.608 83.3617,150.275 84.5,154C 89.5,156.167 94.5,158.333 99.5,160.5C 100.325,164.233 99.3246,167.566 96.5,170.5C 81.5701,164.7 66.9035,158.367 52.5,151.5C 56.1814,141.958 60.3481,132.625 65,123.5C 66.8121,122.023 68.6455,120.69 70.5,119.5 Z M 72.5,130.5 C 76.7326,129.742 79.3993,131.409 80.5,135.5C 79.1831,140.644 77.0165,145.31 74,149.5C 70.4004,148.957 67.5671,147.29 65.5,144.5C 66.8071,139.219 69.1404,134.552 72.5,130.5 Z"/></g>
<g><path style="opacity:0.957" fill="#146ab3" d="M 545.5,133.5 C 557.452,132.965 563.785,138.632 564.5,150.5C 564.705,153.795 563.872,156.795 562,159.5C 558.516,162.911 554.516,165.578 550,167.5C 547,160.5 544,153.5 541,146.5C 536.213,149.434 535.379,153.267 538.5,158C 540.256,158.202 541.922,158.702 543.5,159.5C 544.642,162.399 545.308,165.399 545.5,168.5C 534.52,168.023 528.52,162.19 527.5,151C 529.441,140.891 535.441,135.058 545.5,133.5 Z M 547.5,143.5 C 553.83,142.666 556.663,145.333 556,151.5C 555.333,153.5 554,154.833 552,155.5C 550.395,151.515 548.895,147.515 547.5,143.5 Z"/></g>
<g><path style="opacity:0.908" fill="#1469b1" d="M 48.5,262.5 C 47.5,262.5 46.5,262.5 45.5,262.5C 30.4041,235.967 15.0707,209.634 -0.5,183.5C -0.5,182.5 -0.5,181.5 -0.5,180.5C 31,179.17 62.5,179.17 94,180.5C 94.6667,181.833 94.6667,183.167 94,184.5C 78.6063,210.387 63.4396,236.387 48.5,262.5 Z M 7.5,184.5 C 34.1687,184.333 60.8354,184.5 87.5,185C 73.6214,207.921 60.1214,231.087 47,254.5C 33.5561,231.274 20.3895,207.941 7.5,184.5 Z"/></g>
<g><path style="opacity:0.97" fill="#146ab3" d="M 30.5,188.5 C 40.1246,193.316 49.1246,199.149 57.5,206C 56.624,207.586 55.624,209.086 54.5,210.5C 44.7269,206.447 35.3936,201.614 26.5,196C 27.9732,193.552 29.3065,191.052 30.5,188.5 Z"/></g>
<g><path style="opacity:0.962" fill="#136ab2" d="M 59.5,205.5 C 62.5162,206.343 65.1829,207.843 67.5,210C 66.4154,212.696 64.7487,214.863 62.5,216.5C 60.0413,215.436 57.708,214.102 55.5,212.5C 57.0981,210.302 58.4314,207.969 59.5,205.5 Z"/></g>
</svg>
