<?xml version="1.0" encoding="UTF-8"?>
<!DOCTYPE svg PUBLIC "-//W3C//DTD SVG 1.1//EN" "http://www.w3.org/Graphics/SVG/1.1/DTD/svg11.dtd">
<svg xmlns="http://www.w3.org/2000/svg" version="1.1" width="626px" height="382px" style="shape-rendering:geometricPrecision; text-rendering:geometricPrecision; image-rendering:optimizeQuality; fill-rule:evenodd; clip-rule:evenodd" xmlns:xlink="http://www.w3.org/1999/xlink">
<g><path style="opacity:0.989" fill="#146ab3" d="M 339.5,-0.5 C 341.833,-0.5 344.167,-0.5 346.5,-0.5C 353.581,1.76792 360.915,3.43459 368.5,4.5C 369.732,16.4855 370.899,28.4855 372,40.5C 373.746,29.2271 374.913,17.8937 375.5,6.5C 381.552,6.9121 387.552,7.74543 393.5,9C 394.081,9.8926 394.415,10.8926 394.5,12C 391.463,30.7566 389.13,49.5899 387.5,68.5C 378.181,67.5306 369.015,65.8639 360,63.5C 358.414,51.8138 356.748,40.1472 355,28.5C 353.333,40.1667 351.667,51.8333 350,63.5C 343.141,63.4425 336.308,62.4425 329.5,60.5C 329.5,59.5 329.5,58.5 329.5,57.5C 330.117,57.6107 330.617,57.944 331,58.5C 333.602,38.7863 336.435,19.1197 339.5,-0.5 Z"/></g>
<g><path style="opacity:0.99" fill="#146ab3" d="M 329.5,57.5 C 329.5,58.5 329.5,59.5 329.5,60.5C 323.662,62.013 317.662,62.3464 311.5,61.5C 310.577,58.5534 309.911,55.5534 309.5,52.5C 305.818,52.3347 302.152,52.5014 298.5,53C 296.66,55.8263 295.994,58.9929 296.5,62.5C 289.841,62.9538 283.174,63.2871 276.5,63.5C 280.059,43.5871 283.059,23.5871 285.5,3.5C 295.057,2.32813 304.557,2.32813 314,3.5C 319.072,21.5477 324.239,39.5477 329.5,57.5 Z M 301.5,22.5 C 303.299,28.009 304.965,33.6757 306.5,39.5C 303.833,40.8333 301.167,40.8333 298.5,39.5C 299.779,33.884 300.779,28.2174 301.5,22.5 Z"/></g>
<g><path style="opacity:0.989" fill="#146ab3" d="M 231.5,9.5 C 232.75,9.57735 233.583,10.244 234,11.5C 235.583,16.3386 237.083,21.1719 238.5,26C 234.608,27.6401 230.608,28.9735 226.5,30C 225.572,30.3879 224.905,31.0546 224.5,32C 229.015,45.3759 233.015,58.8759 236.5,72.5C 230.461,74.2907 224.461,76.2907 218.5,78.5C 212.667,65.3371 208,51.6704 204.5,37.5C 200.351,37.8706 196.351,38.8706 192.5,40.5C 190.383,36.3232 188.549,31.9899 187,27.5C 186.219,26.0563 186.386,24.723 187.5,23.5C 202.336,18.9975 217.003,14.3308 231.5,9.5 Z"/></g>
<g><path style="opacity:0.986" fill="#146ab3" d="M 404.5,11.5 C 409.942,12.7581 415.276,14.4248 420.5,16.5C 421.105,24.4807 421.272,32.4807 421,40.5C 424.5,34.1667 428,27.8333 431.5,21.5C 438.316,20.9257 444.983,21.9257 451.5,24.5C 444.399,35.6997 436.566,46.3664 428,56.5C 425.209,63.6655 423.043,70.9988 421.5,78.5C 414.253,77.4389 407.253,75.6055 400.5,73C 402.925,65.8918 405.258,58.7251 407.5,51.5C 405.396,38.2538 404.396,24.9205 404.5,11.5 Z"/></g>
<g><path style="opacity:0.992" fill="#146ab3" d="M 166.5,33.5 C 178.201,34.0331 184.534,40.1997 185.5,52C 184.932,55.2003 184.265,58.3669 183.5,61.5C 188.958,61.4449 193.125,63.7782 196,68.5C 198.898,73.1293 201.398,77.9626 203.5,83C 197.658,86.4215 191.658,89.5881 185.5,92.5C 182.939,86.5426 179.272,81.376 174.5,77C 172.527,76.5045 170.527,76.3379 168.5,76.5C 170.614,83.5603 173.947,90.0603 178.5,96C 172.561,99.8866 166.394,103.387 160,106.5C 149.466,88.6039 139.299,70.4373 129.5,52C 141.114,44.1929 153.448,38.0262 166.5,33.5 Z M 161.5,52.5 C 167.052,52.9106 169.218,55.9106 168,61.5C 165.667,63.1667 163.333,64.8333 161,66.5C 158.769,63.2051 156.936,59.7051 155.5,56C 157.432,54.5415 159.432,53.3748 161.5,52.5 Z"/></g>
<g><path style="opacity:0.989" fill="#146ab3" d="M 488.5,45.5 C 494.895,48.5328 501.228,51.8661 507.5,55.5C 497.504,72.6488 487.337,89.6488 477,106.5C 470.279,103.105 464.112,98.938 458.5,94C 469.382,78.4082 479.382,62.2415 488.5,45.5 Z"/></g>
<g><path style="opacity:0.988" fill="#146ab3" d="M 516.5,67.5 C 535.765,66.634 547.431,75.634 551.5,94.5C 551.432,100.565 549.099,105.565 544.5,109.5C 538.985,105.575 533.652,101.408 528.5,97C 532.87,92.3097 532.203,88.4764 526.5,85.5C 523.501,86.5037 522.334,88.5037 523,91.5C 525.606,96.4352 528.606,101.102 532,105.5C 536.986,117.544 533.819,126.711 522.5,133C 507.356,135.344 496.19,129.844 489,116.5C 485.535,106.379 487.535,97.712 495,90.5C 499.655,94.4867 504.322,98.4867 509,102.5C 507.909,105.328 507.575,108.328 508,111.5C 509.947,114.986 512.28,115.319 515,112.5C 516.187,110.956 516.52,109.289 516,107.5C 511.216,102.044 507.216,96.044 504,89.5C 503.133,85.0442 503.466,80.7109 505,76.5C 508.183,72.4622 512.016,69.4622 516.5,67.5 Z"/></g>
<g><path style="opacity:0.991" fill="#146ab3" d="M 106.5,68.5 C 125.623,69.1156 138.456,78.449 145,96.5C 149.379,115.786 142.213,128.619 123.5,135C 115.807,136.213 108.807,134.546 102.5,130C 94.2633,123.106 88.43,114.606 85,104.5C 83.7368,87.3458 90.9035,75.3458 106.5,68.5 Z M 109.5,89.5 C 118.711,91.7094 124.711,97.376 127.5,106.5C 125.906,112.631 122.239,114.464 116.5,112C 111.07,108.138 107.07,103.138 104.5,97C 105.324,93.8267 106.991,91.3267 109.5,89.5 Z"/></g>
<g><path style="opacity:0.989" fill="#146ab3" d="M 559.5,114.5 C 574.992,112.498 585.492,118.831 591,133.5C 595.64,145.308 592.64,154.642 582,161.5C 577.973,156.306 574.14,150.973 570.5,145.5C 572.086,143.33 573.42,140.996 574.5,138.5C 571.888,132.275 568.888,131.941 565.5,137.5C 568.115,144.677 570.115,152.01 571.5,159.5C 570.277,170.558 564.11,176.891 553,178.5C 534.952,174.795 526.285,163.795 527,145.5C 528.687,138.473 532.687,133.14 539,129.5C 543.001,134.832 546.501,140.498 549.5,146.5C 547.774,148.228 546.441,150.228 545.5,152.5C 548.724,158.994 552.057,158.994 555.5,152.5C 553.057,147.28 550.89,141.947 549,136.5C 545.851,125.802 549.351,118.468 559.5,114.5 Z"/></g>
<g><path style="opacity:0.989" fill="#146ab3" d="M 86.5,186.5 C 86.5,185.833 86.5,185.167 86.5,184.5C 83.0257,181.198 79.359,178.032 75.5,175C 62.3381,165.995 49.3381,156.829 36.5,147.5C 41.8128,137.353 48.4794,128.186 56.5,120C 68.1881,114.61 78.0214,117.11 86,127.5C 90.5605,136.414 89.7271,144.914 83.5,153C 89.3723,156.764 95.039,160.764 100.5,165C 96.7137,171.403 93.0471,177.903 89.5,184.5C 88.6431,185.425 87.6431,186.092 86.5,186.5 Z M 66.5,132.5 C 75.3032,134.635 76.8032,139.302 71,146.5C 67.1981,144.686 64.0314,142.186 61.5,139C 62.5884,136.291 64.255,134.125 66.5,132.5 Z"/></g>
<g><path style="opacity:0.99" fill="#146ab3" d="M 603.5,167.5 C 605.167,167.5 606.833,167.5 608.5,167.5C 610.151,174.105 611.485,180.771 612.5,187.5C 600.601,190.225 588.934,193.725 577.5,198C 574.141,200.034 573.808,202.368 576.5,205C 579.167,205.667 581.833,205.667 584.5,205C 594.137,202.232 603.637,199.066 613,195.5C 616.351,200.693 618.851,206.36 620.5,212.5C 616.983,215.428 612.983,217.594 608.5,219C 595.656,224.37 582.323,226.37 568.5,225C 560.464,223.232 555.298,218.399 553,210.5C 549.476,200.486 551.643,191.986 559.5,185C 564.055,181.555 569.055,178.888 574.5,177C 584.227,173.66 593.893,170.493 603.5,167.5 Z"/></g>
<g><path style="opacity:0.988" fill="#146ab3" d="M 86.5,184.5 C 86.5,185.167 86.5,185.833 86.5,186.5C 83.4353,199.765 79.602,212.765 75,225.5C 56.1715,218.39 37.0048,212.39 17.5,207.5C 19.6909,194.403 22.3575,181.403 25.5,168.5C 26,168.167 26.5,167.833 27,167.5C 31.3501,169.171 35.6835,170.838 40,172.5C 39.5021,178.503 38.6688,184.503 37.5,190.5C 39.9372,190.756 42.2706,191.423 44.5,192.5C 46.6856,187.767 48.1856,182.767 49,177.5C 49.414,177.043 49.914,176.709 50.5,176.5C 53.9227,177.64 57.256,178.974 60.5,180.5C 59.1667,185.5 57.8333,190.5 56.5,195.5C 58.8708,196.791 61.3708,197.791 64,198.5C 64.9454,198.095 65.6121,197.428 66,196.5C 67.4868,191.221 68.6535,185.888 69.5,180.5C 75.2742,181.36 80.9409,182.694 86.5,184.5 Z"/></g>
<g><path style="opacity:0.989" fill="#146ab3" d="M 29.5,226.5 C 37.32,225.599 43.4867,228.265 48,234.5C 50.1005,231.533 52.9338,229.7 56.5,229C 63.779,227.753 71.1124,227.253 78.5,227.5C 78.5,233.833 78.5,240.167 78.5,246.5C 73.1409,246.67 67.8076,247.17 62.5,248C 58.1027,249.208 56.2693,252.041 57,256.5C 62.1116,255.758 67.2783,255.092 72.5,254.5C 73.4419,254.608 74.2753,254.941 75,255.5C 75.4399,260.673 75.9399,265.839 76.5,271C 76.4555,272.764 76.1222,274.431 75.5,276C 56.2092,277.914 36.8758,279.081 17.5,279.5C 16.5117,266.848 16.345,254.181 17,241.5C 18.5104,234.166 22.6771,229.166 29.5,226.5 Z M 34.5,247.5 C 40.9059,248.26 43.5726,251.927 42.5,258.5C 38.8936,258.789 35.3936,258.456 32,257.5C 30.8634,253.537 31.6967,250.204 34.5,247.5 Z"/></g>
<g><path style="opacity:0.992" fill="#146ab3" d="M 561.5,233.5 C 581.778,235.28 602.111,236.28 622.5,236.5C 623.802,250.141 624.302,263.807 624,277.5C 619.199,276.808 614.365,276.142 609.5,275.5C 608.691,269.835 608.025,264.168 607.5,258.5C 604.873,257.908 602.206,257.575 599.5,257.5C 599.5,263.167 599.5,268.833 599.5,274.5C 595.846,274.058 592.179,273.724 588.5,273.5C 587.806,268.195 587.472,262.862 587.5,257.5C 584.482,257.296 581.482,256.963 578.5,256.5C 578.5,263.167 578.5,269.833 578.5,276.5C 572.471,276.575 566.471,276.241 560.5,275.5C 561.166,261.51 561.5,247.51 561.5,233.5 Z"/></g>
<g><path style="opacity:0.936" fill="#1469b1" d="M 83.5,381.5 C 82.5,381.5 81.5,381.5 80.5,381.5C 53.69,367.595 26.69,353.928 -0.5,340.5C -0.5,339.167 -0.5,337.833 -0.5,336.5C 24.2808,320.603 48.9474,304.436 73.5,288C 75.0444,286.813 76.7111,286.48 78.5,287C 80.8682,316.084 82.8682,345.25 84.5,374.5C 84.44,376.921 84.1066,379.254 83.5,381.5 Z M 73.5,294.5 C 76.0119,321.019 77.8453,347.686 79,374.5C 55.0886,362.461 31.2552,350.294 7.5,338C 29.7366,323.725 51.7366,309.225 73.5,294.5 Z"/></g>
<g><path style="opacity:0.956" fill="#146ab3" d="M 63.5,325.5 C 66.1667,325.5 68.8333,325.5 71.5,325.5C 72.1587,328.455 72.4921,331.455 72.5,334.5C 69.5,334.5 66.5,334.5 63.5,334.5C 63.5,331.5 63.5,328.5 63.5,325.5 Z"/></g>
<g><path style="opacity:0.968" fill="#146ab3" d="M 39.5,326.5 C 46.7463,327.464 54.0796,327.797 61.5,327.5C 61.5,329.5 61.5,331.5 61.5,333.5C 53.1606,334.406 44.8273,335.406 36.5,336.5C 30.1562,336.856 27.8229,333.856 29.5,327.5C 33.0419,327.813 36.3752,327.479 39.5,326.5 Z"/></g>
</svg>
